<?xml version="1.0" encoding="utf-8" standalone="no"?>
<!-- Created with Inkscape (http://www.inkscape.org/) -->

<svg xmlns:dc="http://purl.org/dc/elements/1.1/" xmlns:cc="http://creativecommons.org/ns#" xmlns:rdf="http://www.w3.org/1999/02/22-rdf-syntax-ns#" xmlns:svg="http://www.w3.org/2000/svg" xmlns="http://www.w3.org/2000/svg" xmlns:sodipodi="http://sodipodi.sourceforge.net/DTD/sodipodi-0.dtd" xmlns:inkscape="http://www.inkscape.org/namespaces/inkscape" id="svg4136" version="1.1" inkscape:version="0.91 r13725" xml:space="preserve" width="297.4964" height="46.440529" viewBox="0 0 297.4964 46.440529" sodipodi:docname="pis.svg"><metadata id="metadata4142"><rdf:RDF><cc:Work rdf:about=""><dc:format>image/svg+xml</dc:format><dc:type rdf:resource="http://purl.org/dc/dcmitype/StillImage" /><dc:title></dc:title></cc:Work></rdf:RDF></metadata><defs id="defs4140"><clipPath clipPathUnits="userSpaceOnUse" id="clipPath4150"><path d="m 80.999,53.96 468,0 0,-16.8 -468,0 0,16.8 z" id="path4152" inkscape:connector-curvature="0" style="clip-rule:evenodd" /></clipPath><clipPath clipPathUnits="userSpaceOnUse" id="clipPath4156"><path d="m 0,792.06 612,0 0,-792 -612,0 0,792 z" id="path4158" inkscape:connector-curvature="0" /></clipPath><clipPath clipPathUnits="userSpaceOnUse" id="clipPath4186"><path d="m 80.999,743 468,0 0,-15.48 -468,0 0,15.48 z" id="path4188" inkscape:connector-curvature="0" style="clip-rule:evenodd" /></clipPath><clipPath clipPathUnits="userSpaceOnUse" id="clipPath4192"><path d="m 0,792.06 612,0 0,-792 -612,0 0,792 z" id="path4194" inkscape:connector-curvature="0" /></clipPath><clipPath clipPathUnits="userSpaceOnUse" id="clipPath4222"><path d="m 81.359,690.92 467.28,0 0,-281.64 -467.28,0 0,281.64 z" id="path4224" inkscape:connector-curvature="0" style="clip-rule:evenodd" /></clipPath><clipPath clipPathUnits="userSpaceOnUse" id="clipPath4228"><path d="m 80.999,719.96 468,0 0,-657 -468,0 0,657 z" id="path4230" inkscape:connector-curvature="0" style="clip-rule:evenodd" /></clipPath><clipPath clipPathUnits="userSpaceOnUse" id="clipPath4234"><path d="m 0,792.06 612,0 0,-792 -612,0 0,792 z" id="path4236" inkscape:connector-curvature="0" /></clipPath><clipPath clipPathUnits="userSpaceOnUse" id="clipPath4494"><path d="m 80.999,719.96 468,0 0,-657 -468,0 0,657 z" id="path4496" inkscape:connector-curvature="0" style="clip-rule:evenodd" /></clipPath><clipPath clipPathUnits="userSpaceOnUse" id="clipPath4500"><path d="m 0,792.06 612,0 0,-792 -612,0 0,792 z" id="path4502" inkscape:connector-curvature="0" /></clipPath></defs><sodipodi:namedview pagecolor="#ffffff" bordercolor="#666666" borderopacity="1" objecttolerance="10" gridtolerance="10" guidetolerance="10" inkscape:pageopacity="0" inkscape:pageshadow="2" inkscape:window-width="1920" inkscape:window-height="1178" id="namedview4138" showgrid="false" fit-margin-top="0" fit-margin-left="0" fit-margin-right="0" fit-margin-bottom="0" inkscape:zoom="1.0045734" inkscape:cx="250.80125" inkscape:cy="-316.44766" inkscape:window-x="-8" inkscape:window-y="-8" inkscape:window-maximized="1" inkscape:current-layer="g4144" /><g id="g4144" inkscape:groupmode="layer" inkscape:label="40001799A" transform="matrix(1.25,0,0,-1.25,-131.69875,857.88819)"><text transform="matrix(1,0,0,-1,80.9991,31.8803)" style="font-variant:normal;font-weight:normal;font-stretch:normal;font-size:7.92000008px;font-family:Symbol;-inkscape-font-specification:Symbol;writing-mode:lr-tb;fill:#000000;fill-opacity:1;fill-rule:nonzero;stroke:none" id="text4166"><tspan x="0" y="0" id="tspan4168"></tspan></text>
<text transform="scale(1,-1)" style="font-variant:normal;font-weight:bold;font-stretch:normal;font-size:7.99310017px;font-family:Arial;-inkscape-font-specification:'Arial Bold';writing-mode:lr-tb;fill:#000000;fill-opacity:1;fill-rule:nonzero;stroke:none" id="text4238" x="105.3591" y="-678.08032"><tspan x="105.3591 110.03906 115.80528 121.5715 126.49286 128.77409 134.54031 140.75415" y="-678.08032" sodipodi:role="line" id="tspan4240">PART NO.</tspan></text>
<path d="m 105.359,676.76 37.56,0 0,0.84003 -37.56,0 0,-0.84003 z" style="fill:#000000;fill-opacity:1;fill-rule:nonzero;stroke:none" id="path4242" inkscape:connector-curvature="0" /><text transform="scale(1,-1)" style="font-variant:normal;font-weight:bold;font-stretch:normal;font-size:7.99310017px;font-family:Arial;-inkscape-font-specification:'Arial Bold';writing-mode:lr-tb;fill:#000000;fill-opacity:1;fill-rule:nonzero;stroke:none" id="text4244" x="230.039" y="-678.08032"><tspan x="230.039" y="-678.08032" id="tspan4246">X</tspan></text>
<path d="m 230.039,676.76 5.28,0 0,0.84003 -5.28,0 0,-0.84003 z" style="fill:#000000;fill-opacity:1;fill-rule:nonzero;stroke:none" id="path4248" inkscape:connector-curvature="0" /><text transform="scale(1,-1)" style="font-variant:normal;font-weight:bold;font-stretch:normal;font-size:7.99310017px;font-family:Arial;-inkscape-font-specification:'Arial Bold';writing-mode:lr-tb;fill:#000000;fill-opacity:1;fill-rule:nonzero;stroke:none" id="text4250" x="277.67899" y="-678.08032"><tspan x="277.67899 279.96024 285.24048" y="-678.08032" sodipodi:role="line" id="tspan4252">/XX</tspan></text>
<path d="m 277.679,676.76 12.84,0 0,0.84003 -12.84,0 0,-0.84003 z" style="fill:#000000;fill-opacity:1;fill-rule:nonzero;stroke:none" id="path4254" inkscape:connector-curvature="0" /><text transform="scale(1,-1)" style="font-variant:normal;font-weight:bold;font-stretch:normal;font-size:7.99310017px;font-family:Arial;-inkscape-font-specification:'Arial Bold';writing-mode:lr-tb;fill:#000000;fill-opacity:1;fill-rule:nonzero;stroke:none" id="text4256" x="321.83899" y="-678.08032"><tspan x="321.83899 327.23914 332.51938" y="-678.08032" sodipodi:role="line" id="tspan4258">XXX</tspan></text>
<path d="m 321.839,676.76 16.08,0 0,0.84003 -16.08,0 0,-0.84003 z" style="fill:#000000;fill-opacity:1;fill-rule:nonzero;stroke:none" id="path4260" inkscape:connector-curvature="0" /><text transform="scale(1,-1)" style="font-variant:normal;font-weight:bold;font-stretch:normal;font-size:7.99310017px;font-family:Arial;-inkscape-font-specification:'Arial Bold';writing-mode:lr-tb;fill:#000000;fill-opacity:1;fill-rule:nonzero;stroke:none" id="text4262" x="316.319" y="-660.08032"><tspan x="316.319 321.71915 326.15771 328.81381 331.46991 335.90848 339.01221 268.43872 273.71896 278.15753 282.5961 287.03467 291.47324 296.39459 208.19873 212.51981 216.95837 224.05145 228.97279 233.40417 236.5007 240.93207 243.58099 248.50233 251.62125" y="-660.08032" sodipodi:role="line" id="tspan4264">PatternPackageTemperature</tspan><tspan x="218.15894 223.92116 228.35654 233.27788 238.07933" y="-650.84027" sodipodi:role="line" id="tspan4266">Range</tspan><tspan x="112.3183 118.08293 122.52069 126.95847 129.2397 133.67746" y="-660.44" sodipodi:role="line" id="tspan4268">Device</tspan></text>
<path d="m 123.599,676.64 0.48,0 0,0.23999 -0.48,0 0,-0.23999 z" style="fill:#000000;fill-opacity:1;fill-rule:nonzero;stroke:none" id="path4270" inkscape:connector-curvature="0" /><path d="m 123.599,667.4 0.48,0 0,9.2401 -0.48,0 0,-9.2401 z" style="fill:#000000;fill-opacity:1;fill-rule:nonzero;stroke:none" id="path4272" inkscape:connector-curvature="0" /><path d="m 231.839,676.88 0.48,0 0,0.23999 -0.48,0 0,-0.23999 z" style="fill:#000000;fill-opacity:1;fill-rule:nonzero;stroke:none" id="path4274" inkscape:connector-curvature="0" /><path d="m 231.839,667.64 0.48,0 0,9.24 -0.48,0 0,-9.24 z" style="fill:#000000;fill-opacity:1;fill-rule:nonzero;stroke:none" id="path4276" inkscape:connector-curvature="0" /><path d="m 283.799,676.88 0.47998,0 0,0.23999 -0.47998,0 0,-0.23999 z" style="fill:#000000;fill-opacity:1;fill-rule:nonzero;stroke:none" id="path4278" inkscape:connector-curvature="0" /><path d="m 283.799,667.64 0.47998,0 0,9.24 -0.47998,0 0,-9.24 z" style="fill:#000000;fill-opacity:1;fill-rule:nonzero;stroke:none" id="path4280" inkscape:connector-curvature="0" /><path d="m 329.279,676.88 0.48001,0 0,0.23999 -0.48001,0 0,-0.23999 z" style="fill:#000000;fill-opacity:1;fill-rule:nonzero;stroke:none" id="path4282" inkscape:connector-curvature="0" /><path d="m 329.279,667.64 0.48001,0 0,9.24 -0.48001,0 0,-9.24 z" style="fill:#000000;fill-opacity:1;fill-rule:nonzero;stroke:none" id="path4284" inkscape:connector-curvature="0" /><text transform="scale(1,-1)" style="font-variant:normal;font-weight:normal;font-stretch:normal;font-size:6.96000004px;font-family:Symbol;-inkscape-font-specification:Symbol;writing-mode:lr-tb;fill:#000000;fill-opacity:1;fill-rule:nonzero;stroke:none" id="text4330" x="203.519" y="-557.00031"><tspan x="203.519" y="-557.00031" id="tspan4332"></tspan></text>
<text transform="scale(1,-1)" style="font-variant:normal;font-weight:normal;font-stretch:normal;font-size:6.96000004px;font-family:Symbol;-inkscape-font-specification:Symbol;writing-mode:lr-tb;fill:#000000;fill-opacity:1;fill-rule:nonzero;stroke:none" id="text4338" x="239.159" y="-557.00031"><tspan x="239.159" y="-557.00031" id="tspan4340"></tspan></text>
<text transform="scale(1,-1)" style="font-variant:normal;font-weight:normal;font-stretch:normal;font-size:6.96000004px;font-family:Symbol;-inkscape-font-specification:Symbol;writing-mode:lr-tb;fill:#000000;fill-opacity:1;fill-rule:nonzero;stroke:none" id="text4348" x="203.519" y="-548.96033"><tspan x="203.519" y="-548.96033" id="tspan4350"></tspan></text>
<text transform="scale(1,-1)" style="font-variant:normal;font-weight:normal;font-stretch:normal;font-size:6.96000004px;font-family:Symbol;-inkscape-font-specification:Symbol;writing-mode:lr-tb;fill:#000000;fill-opacity:1;fill-rule:nonzero;stroke:none" id="text4356" x="239.159" y="-548.96033"><tspan x="239.159" y="-548.96033" id="tspan4358"></tspan></text>
<text transform="scale(1,-1)" style="font-variant:normal;font-weight:bold;font-stretch:normal;font-size:7.99310017px;font-family:Arial;-inkscape-font-specification:'Arial Bold';writing-mode:lr-tb;fill:#000000;fill-opacity:1;fill-rule:nonzero;stroke:none" id="text4464" x="166.319" y="-678.44031"><tspan x="166.319 168.95912 174.35925" y="-678.44031" sodipodi:role="line" id="tspan4466">[X]</tspan></text>
<text transform="scale(1,-1)" style="font-variant:normal;font-weight:bold;font-stretch:normal;font-size:6.36000013px;font-family:Arial;-inkscape-font-specification:'Arial Bold';writing-mode:lr-tb;fill:#000000;fill-opacity:1;fill-rule:nonzero;stroke:none" id="text4468" x="176.99899" y="-681.6803"><tspan x="176.99899 179.15886 182.63777" y="-681.6803" sodipodi:role="line" id="tspan4470">(1)</tspan></text>
<text transform="scale(1,-1)" style="font-variant:normal;font-weight:bold;font-stretch:normal;font-size:7.99310017px;font-family:Arial;-inkscape-font-specification:'Arial Bold';writing-mode:lr-tb;fill:#000000;fill-opacity:1;fill-rule:nonzero;stroke:none" id="text4472" x="147.839" y="-660.44031"><tspan x="147.839 152.04018 156.47874 161.4001 165.83867 168.11989 172.55766 177.35912 182.28047 184.56169 190.32632 194.76408 199.20186" y="-660.44031" sodipodi:role="line" id="tspan4474">Tape and Reel</tspan><tspan x="157.79921 164.05141 168.96877 171.60889 173.77022 178.68758" y="-651.20026" sodipodi:role="line" id="tspan4476">Option</tspan></text>
<path d="m 171.359,675.56 0.48,0 0,0.23999 -0.48,0 0,-0.23999 z" style="fill:#000000;fill-opacity:1;fill-rule:nonzero;stroke:none" id="path4478" inkscape:connector-curvature="0" /><path d="m 171.359,666.32 0.48,0 0,9.24 -0.48,0 0,-9.24 z" style="fill:#000000;fill-opacity:1;fill-rule:nonzero;stroke:none" id="path4480" inkscape:connector-curvature="0" /><text transform="scale(1,-1)" style="font-variant:normal;font-weight:normal;font-stretch:normal;font-size:9px;font-family:Arial;-inkscape-font-specification:Arial;writing-mode:lr-tb;fill:#000000;fill-opacity:1;fill-rule:nonzero;stroke:none" id="text4482" x="201.479" y="-677.1203"><tspan x="201.479" y="-677.1203" id="tspan4484">-</tspan></text>
<path d="m 168.599,675.44 0.23999,0 0,0.47998 -0.23999,0 0,-0.47998 z" style="fill:#000000;fill-opacity:1;fill-rule:nonzero;stroke:none" id="path4486" inkscape:connector-curvature="0" /><path d="m 168.839,675.44 5.76,0 0,0.47998 -5.76,0 0,-0.47998 z" style="fill:#000000;fill-opacity:1;fill-rule:nonzero;stroke:none" id="path4488" inkscape:connector-curvature="0" /></g></svg>